<svg xmlns="http://www.w3.org/2000/svg" width="46" height="46" viewBox="0 0 46 46">
  <g fill="none" fill-rule="evenodd">
    <path d="M23 9.818c3.15 0 5.97 1.08 8.19 2.86l6.13-6.13C33.47 3.13 28.6 1 23 1 14.61 1 7.26 5.98 3.44 12.44l7.51 5.83C12.36 13.13 17.23 9.818 23 9.818z" fill="#EA4335"/>
    <path d="M44.5 23.462c0-1.56-.14-3.13-.44-4.62H23v9.13h12.13c-.52 2.7-2.09 4.98-4.45 6.53l7.01 5.45C41.98 36.13 44.5 30.36 44.5 23.462z" fill="#4285F4"/>
    <path d="M10.95 27.27c-1.13-3.13-1.13-6.5 0-9.63l-7.51-5.83C1.13 15.13 0 18.93 0 23c0 4.07 1.13 7.87 3.44 11.19l7.51-5.83z" fill="#FBBC05"/>
    <path d="M23 45c5.6 0 10.47-1.87 14.01-5.09l-7.01-5.45c-1.94 1.3-4.41 2.09-6.99 2.09-5.77 0-10.64-3.31-12.99-8.09l-7.51 5.83C7.26 40.02 14.61 45 23 45z" fill="#34A853"/>
    <path d="M44.5 23.462c0-1.56-.14-3.13-.44-4.62H23v9.13h12.13c-.52 2.7-2.09 4.98-4.45 6.53l7.01 5.45C41.98 36.13 44.5 30.36 44.5 23.462z" fill="#4285F4"/>
  </g>
</svg>